Coordinates
version=1
nRows=20
nColumns=38
inDegrees=no

Units are S.I. units (second, meters, Newtons, ...)
If the header above contains a line with 'inDegrees', this indicates whether rotational values are in degrees (yes) or radians (no).

endheader
time	pelvis_tilt	pelvis_list	pelvis_rotation	pelvis_tx	pelvis_ty	pelvis_tz	hip_flexion_r	hip_adduction_r	hip_rotation_r	knee_angle_r	ankle_angle_r	subtalar_angle_r	mtp_angle_r	hip_flexion_l	hip_adduction_l	hip_rotation_l	knee_angle_l	ankle_angle_l	subtalar_angle_l	mtp_angle_l	lumbar_extension	lumbar_bending	lumbar_rotation	arm_flex_r	arm_add_r	arm_rot_r	elbow_flex_r	pro_sup_r	wrist_flex_r	wrist_dev_r	arm_flex_l	arm_add_l	arm_rot_l	elbow_flex_l	pro_sup_l	wrist_flex_l	wrist_dev_l
2.3	-0.942176	1.47877	-0.519569	0.642005	-0.243574	0.916635	0.289911	0.0379496	-0.373516	0.370291	0.0661236	0	0	0.0140174	-0.313027	-0.201306	1.03813	-0.171143	0	0	-0.144916	0.149693	-0.126378	0.0146577	-0.348159	0.530721	0.686459	1.31248	0	0	-0.0271623	-0.355774	0.513168	0.711241	1.01673	0	0
2.31	-0.928688	1.47642	-0.535034	0.639797	-0.253747	0.918091	0.274437	0.0465096	-0.365553	0.366617	0.0701987	0	0	0.0392032	-0.318345	-0.186913	1.07675	-0.18285	0	0	-0.147203	0.150428	-0.118267	0.0174336	-0.35294	0.532283	0.691419	1.30781	0	0	-0.0350716	-0.353571	0.52617	0.706727	1.01721	0	0
2.32	-0.891368	1.47434	-0.574238	0.637653	-0.263827	0.91986	0.256313	0.0532652	-0.357399	0.362002	0.0743086	0	0	0.0606952	-0.321122	-0.173958	1.11057	-0.181575	0	0	-0.151556	0.14917	-0.109934	0.0204396	-0.356806	0.532942	0.695023	1.30343	0	0	-0.0421918	-0.351762	0.539136	0.702269	1.01802	0	0
2.33	-0.841312	1.47277	-0.626193	0.63559	-0.273795	0.921845	0.236538	0.0581091	-0.350387	0.35602	0.0782839	0	0	0.080672	-0.321544	-0.161712	1.14177	-0.169703	0	0	-0.157043	0.146287	-0.101979	0.0241968	-0.3597	0.532386	0.697037	1.30128	0	0	-0.0492718	-0.350062	0.550697	0.698032	1.01895	0	0
2.34	-0.788524	1.47182	-0.681229	0.633595	-0.283499	0.923931	0.216344	0.0615019	-0.344277	0.348335	0.0815111	0	0	0.100915	-0.320124	-0.150583	1.17127	-0.148389	0	0	-0.162933	0.142311	-0.0939327	0.0286289	-0.36184	0.530175	0.697993	1.30194	0	0	-0.0557435	-0.348526	0.562351	0.693819	1.01915	0	0
2.35	-0.730001	1.47136	-0.742011	0.631672	-0.293026	0.926083	0.195765	0.0630547	-0.340127	0.339907	0.0848932	0	0	0.12046	-0.316775	-0.141025	1.19627	-0.124681	0	0	-0.16905	0.137123	-0.0866517	0.034137	-0.364209	0.531774	0.698866	1.29167	0	0	-0.0629317	-0.34609	0.56791	0.689136	1.0287	0	0
2.36	-0.636228	1.48189	-0.837831	0.629985	-0.302569	0.927067	0.204464	0.0314506	-0.396027	0.38945	0.115658	0	0	0.145207	-0.29991	-0.132965	1.21588	-0.104844	0	0	-0.16735	0.120264	-0.0811311	0.0364204	-0.361832	0.517274	0.696829	1.327	0	0	-0.0718665	-0.348636	0.581202	0.691865	1.00632	0	0
2.37	-0.571459	1.48312	-0.905656	0.628159	-0.311669	0.929051	0.186885	0.0300685	-0.395023	0.382414	0.120094	0	0	0.16438	-0.293259	-0.127088	1.22893	-0.0896547	0	0	-0.171777	0.112939	-0.0738291	0.0416697	-0.362669	0.512181	0.696906	1.33284	0	0	-0.079056	-0.346747	0.585452	0.689715	1.00304	0	0
2.38	-0.508294	1.48478	-0.972965	0.626324	-0.320742	0.930944	0.170034	0.0285076	-0.39347	0.374562	0.12404	0	0	0.182494	-0.286258	-0.123921	1.23652	-0.0757769	0	0	-0.175186	0.105394	-0.0663243	0.0471222	-0.365456	0.514581	0.699829	1.31618	0	0	-0.0874511	-0.343387	0.582553	0.686687	1.01423	0	0
2.39	-0.484962	1.48249	-1.00065	0.624493	-0.329479	0.933257	0.139039	0.0438276	-0.360484	0.333376	0.113274	0	0	0.198811	-0.285203	-0.12202	1.23908	-0.0642088	0	0	-0.180742	0.103457	-0.0575012	0.0519644	-0.367057	0.506741	0.70198	1.32156	0	0	-0.0933603	-0.339456	0.583982	0.683296	1.01056	0	0
2.4	-0.404148	1.48896	-1.08615	0.622897	-0.338354	0.934365	0.137784	0.0277291	-0.385758	0.352666	0.12841	0	0	0.218815	-0.273432	-0.12359	1.23765	-0.0535085	0	0	-0.179312	0.0918672	-0.0503071	0.0540552	-0.367945	0.497765	0.706607	1.32657	0	0	-0.102107	-0.337935	0.584053	0.684349	1.00479	0	0
2.41	-0.34943	1.49205	-1.14474	0.62131	-0.3472	0.935803	0.12359	0.0255903	-0.386623	0.343864	0.132654	0	0	0.236642	-0.266397	-0.125806	1.23147	-0.04485	0	0	-0.179229	0.0845809	-0.0434107	0.0559538	-0.369136	0.489113	0.711477	1.32923	0	0	-0.110201	-0.335748	0.584321	0.68457	0.998895	0	0
2.42	-0.30397	1.49268	-1.1954	0.619574	-0.355948	0.937475	0.10219	0.0305612	-0.372394	0.320715	0.12947	0	0	0.250718	-0.261626	-0.1305	1.22035	-0.0362122	0	0	-0.181251	0.0789954	-0.0349019	0.0577054	-0.370627	0.478945	0.717462	1.33301	0	0	-0.117416	-0.333409	0.584212	0.685179	0.990934	0	0
2.43	-0.22377	1.49517	-1.28268	0.617762	-0.364535	0.938829	0.0912502	0.0241483	-0.37899	0.319658	0.135686	0	0	0.263874	-0.251849	-0.136948	1.20482	-0.0246227	0	0	-0.182075	0.0697523	-0.0251372	0.0592711	-0.372123	0.470562	0.723888	1.33371	0	0	-0.124577	-0.331729	0.582895	0.687006	0.986224	0	0
2.44	-0.150446	1.49622	-1.36322	0.616077	-0.373215	0.940226	0.0752671	0.0222679	-0.375087	0.30824	0.138367	0	0	0.274462	-0.245059	-0.148019	1.18515	-0.0116685	0	0	-0.183366	0.0617955	-0.0150358	0.0592951	-0.373561	0.458264	0.731938	1.33646	0	0	-0.131601	-0.329432	0.580575	0.689117	0.977678	0	0
2.45	-0.0820946	1.49663	-1.4383	0.614491	-0.381925	0.941503	0.058549	0.021032	-0.369929	0.295617	0.140391	0	0	0.283615	-0.239088	-0.160649	1.16186	0.00126303	0	0	-0.184628	0.0544827	-0.00595792	0.0595881	-0.375048	0.447375	0.739805	1.33827	0	0	-0.138916	-0.327179	0.577156	0.691998	0.96805	0	0
2.46	-0.015115	1.4964	-1.51169	0.612914	-0.390526	0.942672	0.0418696	0.019785	-0.36406	0.283462	0.142143	0	0	0.291208	-0.233178	-0.174711	1.13464	0.0132872	0	0	-0.186457	0.0472335	0.00226292	0.0607949	-0.376917	0.440954	0.747807	1.32791	0	0	-0.146188	-0.325114	0.572166	0.695305	0.961409	0	0
2.47	0.0488264	1.49513	-1.58175	0.611401	-0.399066	0.943789	0.0246153	0.0185153	-0.35803	0.271493	0.143814	0	0	0.296519	-0.227265	-0.19041	1.10329	0.0235426	0	0	-0.189101	0.040067	0.010107	0.0618412	-0.377497	0.430184	0.754536	1.33066	0	0	-0.15296	-0.323308	0.567278	0.699185	0.95323	0	0
2.48	0.112899	1.49157	-1.65185	0.609995	-0.407565	0.945005	0.00447425	0.0170464	-0.349886	0.257723	0.144476	0	0	0.297571	-0.220312	-0.207793	1.06687	0.0321088	0	0	-0.194031	0.0325222	0.0173683	0.0636771	-0.379175	0.424645	0.762429	1.31742	0	0	-0.159253	-0.321618	0.562506	0.704238	0.934516	0	0
2.49	0.162006	1.48881	-1.70639	0.608762	-0.416071	0.945934	-0.0142049	0.0158186	-0.343044	0.24499	0.145351	0	0	0.299206	-0.214995	-0.227685	1.02846	0.0394894	0	0	-0.197721	0.0261673	0.0237888	0.0657457	-0.380902	0.419688	0.769275	1.31205	0	0	-0.165012	-0.318996	0.557106	0.706777	0.930644	0	0
